<?xml version="1.0" encoding="utf-8"?>
<!-- Generator: Adobe Illustrator 24.1.0, SVG Export Plug-In . SVG Version: 6.00 Build 0)  -->
<svg version="1.1" id="Layer_1" xmlns="http://www.w3.org/2000/svg" xmlns:xlink="http://www.w3.org/1999/xlink" x="0px" y="0px"
	 viewBox="0 0 77.68 58.06" style="enable-background:new 0 0 77.68 58.06;" xml:space="preserve">
<style type="text/css">
	.st0{fill:#F9D53D;}
	.st1{fill:#D7D9DD;}
	.st2{fill:#C6C6C6;}
</style>
<path class="st0" d="M43.8,0C44.58,3.08,45,6.31,45,9.63c0,21.6-17.51,39.11-39.11,39.11c-2,0-3.97-0.15-5.89-0.44
	c5.92,6.02,14.16,9.75,23.27,9.75c18.04,0,32.66-14.62,32.66-32.66C55.93,15.14,51.2,5.99,43.8,0z"/>
<path class="st1" d="M77.67,32.96c0.13,2.62-1.89,4.84-4.51,4.97c-1.11,0.05-2.15-0.28-2.99-0.88c-0.54,0.25-1.15,0.41-1.78,0.44
	c-1.45,0.07-2.78-0.52-3.7-1.5c-1,0.92-2.32,1.51-3.79,1.59c-1.92,0.09-3.66-0.72-4.83-2.06c-0.65,0.28-1.37,0.46-2.12,0.5
	c-1.76,0.09-3.37-0.6-4.53-1.75c-0.82,1.04-2.06,1.74-3.49,1.81c-2.62,0.13-4.84-1.89-4.97-4.51c-0.04-0.72,0.09-1.41,0.36-2.04
	c0.58-1.41,1.83-2.48,3.37-2.81c0.76-1.42,2.22-2.42,3.94-2.5c0.21-0.01,0.4-0.01,0.6,0.01c0.77-2.28,2.87-3.97,5.41-4.1
	c1.92-0.09,3.66,0.72,4.83,2.06c0.65-0.29,1.37-0.47,2.12-0.51c2.32-0.11,4.39,1.1,5.48,2.97c0.23-0.04,0.45-0.08,0.69-0.09
	c2.41-0.12,4.48,1.58,4.89,3.9c0.02-0.01,0.03-0.01,0.04-0.01C75.32,28.34,77.54,30.35,77.67,32.96z"/>
<path class="st2" d="M77.67,32.96c0.13,2.62-1.89,4.84-4.51,4.97c-1.11,0.05-2.15-0.28-2.99-0.88c-0.54,0.25-1.15,0.41-1.78,0.44
	c-1.45,0.07-2.78-0.52-3.7-1.5c-1,0.92-2.32,1.51-3.79,1.59c-1.92,0.09-3.66-0.72-4.83-2.06c-0.65,0.28-1.37,0.46-2.12,0.5
	c-1.76,0.09-3.37-0.6-4.53-1.75c-0.82,1.04-2.06,1.74-3.49,1.81c-2.62,0.13-4.84-1.89-4.97-4.51c-0.04-0.72,0.09-1.41,0.36-2.04
	c0,0,1.8,4.25,7.65,2.83c0,0,4.18,1.32,6.35,0.34c0.75-0.34,1.63-0.23,2.32,0.21c1.48,0.95,3.97,2.07,6.45,0.91
	c0.31-0.14,0.67-0.08,0.92,0.16c0.8,0.8,2.69,2.32,4.66,1.24c0.3-0.17,0.64-0.24,0.98-0.19C71.76,35.18,74.46,35.24,77.67,32.96z"/>
<path class="st1" d="M40.07,50.78c0.13,2.62-1.89,4.84-4.51,4.97c-1.11,0.05-2.15-0.28-2.99-0.88c-0.54,0.25-1.15,0.41-1.78,0.44
	c-1.45,0.07-2.78-0.52-3.7-1.5c-1,0.92-2.32,1.51-3.79,1.59c-1.92,0.09-3.66-0.72-4.83-2.06c-0.65,0.28-1.37,0.46-2.12,0.5
	c-1.76,0.09-3.37-0.6-4.53-1.75c-0.82,1.04-2.06,1.74-3.49,1.81C5.72,54.01,3.49,52,3.37,49.38c-0.04-0.72,0.09-1.41,0.36-2.04
	c0.58-1.41,1.83-2.48,3.37-2.81c0.76-1.42,2.22-2.42,3.94-2.5c0.21-0.01,0.4-0.01,0.6,0.01c0.77-2.28,2.87-3.97,5.41-4.1
	c1.92-0.09,3.66,0.72,4.83,2.06c0.65-0.29,1.37-0.47,2.12-0.51c2.32-0.11,4.39,1.1,5.48,2.97c0.23-0.04,0.45-0.08,0.69-0.09
	c2.41-0.12,4.48,1.58,4.89,3.9c0.02-0.01,0.03-0.01,0.04-0.01C37.71,46.15,39.94,48.17,40.07,50.78z"/>
<path class="st2" d="M40.07,50.78c0.13,2.62-1.89,4.84-4.51,4.97c-1.11,0.05-2.15-0.28-2.99-0.88c-0.54,0.25-1.15,0.41-1.78,0.44
	c-1.45,0.07-2.78-0.52-3.7-1.5c-1,0.92-2.32,1.51-3.79,1.59c-1.92,0.09-3.66-0.72-4.83-2.06c-0.65,0.28-1.37,0.46-2.12,0.5
	c-1.76,0.09-3.37-0.6-4.53-1.75c-0.82,1.04-2.06,1.74-3.49,1.81C5.72,54.01,3.49,52,3.37,49.38c-0.04-0.72,0.09-1.41,0.36-2.04
	c0,0,1.8,4.25,7.65,2.83c0,0,4.18,1.32,6.35,0.34c0.75-0.34,1.63-0.23,2.32,0.21c1.48,0.95,3.97,2.07,6.45,0.91
	c0.31-0.14,0.67-0.08,0.92,0.16c0.8,0.8,2.69,2.32,4.66,1.24c0.3-0.17,0.64-0.24,0.98-0.19C34.15,53,36.86,53.06,40.07,50.78z"/>
</svg>
