<svg width="1324" height="1105" viewBox="0 0 1324 1105" fill="none" xmlns="http://www.w3.org/2000/svg">
<rect opacity="0.047619" x="526.04" y="66.1746" width="737.933" height="737.933" transform="rotate(25 526.04 66.1746)" stroke="url(#paint0_linear)" stroke-width="2"/>
<rect opacity="0.0952381" x="526.017" y="64.468" width="737.933" height="737.933" transform="rotate(26 526.017 64.468)" stroke="url(#paint1_linear)" stroke-width="2"/>
<rect opacity="0.142857" x="525.994" y="62.761" width="737.933" height="737.933" transform="rotate(27 525.994 62.761)" stroke="url(#paint2_linear)" stroke-width="2"/>
<rect opacity="0.190476" x="525.97" y="61.0526" width="737.933" height="737.933" transform="rotate(28 525.97 61.0526)" stroke="url(#paint3_linear)" stroke-width="2"/>
<rect opacity="0.238095" x="525.946" y="59.3428" width="737.933" height="737.933" transform="rotate(29 525.946 59.3428)" stroke="url(#paint4_linear)" stroke-width="2"/>
<rect opacity="0.285714" x="525.923" y="57.6346" width="737.933" height="737.933" transform="rotate(30 525.923 57.6346)" stroke="url(#paint5_linear)" stroke-width="2"/>
<rect opacity="0.333333" x="525.899" y="55.9259" width="737.933" height="737.933" transform="rotate(31 525.899 55.9259)" stroke="url(#paint6_linear)" stroke-width="2"/>
<rect opacity="0.380952" x="525.875" y="54.2159" width="737.933" height="737.933" transform="rotate(32 525.875 54.2159)" stroke="url(#paint7_linear)" stroke-width="2"/>
<rect opacity="0.428571" x="525.851" y="52.5064" width="737.933" height="737.933" transform="rotate(33 525.851 52.5064)" stroke="url(#paint8_linear)" stroke-width="2"/>
<rect opacity="0.47619" x="525.826" y="50.7955" width="737.933" height="737.933" transform="rotate(34 525.826 50.7955)" stroke="url(#paint9_linear)" stroke-width="2"/>
<rect opacity="0.52381" x="525.802" y="49.0841" width="737.933" height="737.933" transform="rotate(35 525.802 49.0841)" stroke="url(#paint10_linear)" stroke-width="2"/>
<rect opacity="0.571429" x="525.778" y="47.3724" width="737.933" height="737.933" transform="rotate(36 525.778 47.3724)" stroke="url(#paint11_linear)" stroke-width="2"/>
<rect opacity="0.619048" x="525.753" y="45.6612" width="737.933" height="737.933" transform="rotate(37 525.753 45.6612)" stroke="url(#paint12_linear)" stroke-width="2"/>
<rect opacity="0.666667" x="525.729" y="43.9486" width="737.933" height="737.933" transform="rotate(38 525.729 43.9486)" stroke="url(#paint13_linear)" stroke-width="2"/>
<rect opacity="0.714286" x="525.704" y="42.2365" width="737.933" height="737.933" transform="rotate(39 525.704 42.2365)" stroke="url(#paint14_linear)" stroke-width="2"/>
<rect opacity="0.761905" x="525.68" y="40.5231" width="737.933" height="737.933" transform="rotate(40 525.68 40.5231)" stroke="url(#paint15_linear)" stroke-width="2"/>
<rect opacity="0.809524" x="525.655" y="38.8102" width="737.933" height="737.933" transform="rotate(41 525.655 38.8102)" stroke="url(#paint16_linear)" stroke-width="2"/>
<rect opacity="0.857143" x="525.631" y="37.0949" width="737.933" height="737.933" transform="rotate(42 525.631 37.0949)" stroke="url(#paint17_linear)" stroke-width="2"/>
<rect opacity="0.904762" x="525.606" y="35.3811" width="737.933" height="737.933" transform="rotate(43 525.606 35.3811)" stroke="url(#paint18_linear)" stroke-width="2"/>
<rect opacity="0.952381" x="525.581" y="33.6669" width="737.933" height="737.933" transform="rotate(44 525.581 33.6669)" stroke="url(#paint19_linear)" stroke-width="2"/>
<rect x="525.557" y="31.9513" width="737.933" height="737.933" transform="rotate(45 525.557 31.9513)" stroke="url(#paint20_linear)" stroke-width="2"/>
<defs>
<linearGradient id="paint0_linear" x1="895.523" y1="64.8457" x2="895.523" y2="804.779" gradientUnits="userSpaceOnUse">
<stop stop-color="#C12323"/>
<stop offset="1" stop-color="#2333C1"/>
</linearGradient>
<linearGradient id="paint1_linear" x1="895.523" y1="63.1309" x2="895.523" y2="803.064" gradientUnits="userSpaceOnUse">
<stop stop-color="#C12323"/>
<stop offset="1" stop-color="#2333C1"/>
</linearGradient>
<linearGradient id="paint2_linear" x1="895.523" y1="61.416" x2="895.523" y2="801.349" gradientUnits="userSpaceOnUse">
<stop stop-color="#C12323"/>
<stop offset="1" stop-color="#2333C1"/>
</linearGradient>
<linearGradient id="paint3_linear" x1="895.523" y1="59.7002" x2="895.523" y2="799.634" gradientUnits="userSpaceOnUse">
<stop stop-color="#C12323"/>
<stop offset="1" stop-color="#2333C1"/>
</linearGradient>
<linearGradient id="paint4_linear" x1="895.523" y1="57.9834" x2="895.523" y2="797.917" gradientUnits="userSpaceOnUse">
<stop stop-color="#C12323"/>
<stop offset="1" stop-color="#2333C1"/>
</linearGradient>
<linearGradient id="paint5_linear" x1="895.523" y1="56.2686" x2="895.523" y2="796.202" gradientUnits="userSpaceOnUse">
<stop stop-color="#C12323"/>
<stop offset="1" stop-color="#2333C1"/>
</linearGradient>
<linearGradient id="paint6_linear" x1="895.523" y1="54.5537" x2="895.523" y2="794.487" gradientUnits="userSpaceOnUse">
<stop stop-color="#C12323"/>
<stop offset="1" stop-color="#2333C1"/>
</linearGradient>
<linearGradient id="paint7_linear" x1="895.523" y1="52.8379" x2="895.523" y2="792.771" gradientUnits="userSpaceOnUse">
<stop stop-color="#C12323"/>
<stop offset="1" stop-color="#2333C1"/>
</linearGradient>
<linearGradient id="paint8_linear" x1="895.523" y1="51.123" x2="895.523" y2="791.056" gradientUnits="userSpaceOnUse">
<stop stop-color="#C12323"/>
<stop offset="1" stop-color="#2333C1"/>
</linearGradient>
<linearGradient id="paint9_linear" x1="895.523" y1="49.4072" x2="895.523" y2="789.341" gradientUnits="userSpaceOnUse">
<stop stop-color="#C12323"/>
<stop offset="1" stop-color="#2333C1"/>
</linearGradient>
<linearGradient id="paint10_linear" x1="895.523" y1="47.6914" x2="895.523" y2="787.625" gradientUnits="userSpaceOnUse">
<stop stop-color="#C12323"/>
<stop offset="1" stop-color="#2333C1"/>
</linearGradient>
<linearGradient id="paint11_linear" x1="895.523" y1="45.9756" x2="895.523" y2="785.909" gradientUnits="userSpaceOnUse">
<stop stop-color="#C12323"/>
<stop offset="1" stop-color="#2333C1"/>
</linearGradient>
<linearGradient id="paint12_linear" x1="895.523" y1="44.2607" x2="895.523" y2="784.194" gradientUnits="userSpaceOnUse">
<stop stop-color="#C12323"/>
<stop offset="1" stop-color="#2333C1"/>
</linearGradient>
<linearGradient id="paint13_linear" x1="895.523" y1="42.5449" x2="895.523" y2="782.478" gradientUnits="userSpaceOnUse">
<stop stop-color="#C12323"/>
<stop offset="1" stop-color="#2333C1"/>
</linearGradient>
<linearGradient id="paint14_linear" x1="895.523" y1="40.8301" x2="895.523" y2="780.763" gradientUnits="userSpaceOnUse">
<stop stop-color="#C12323"/>
<stop offset="1" stop-color="#2333C1"/>
</linearGradient>
<linearGradient id="paint15_linear" x1="895.523" y1="39.1143" x2="895.523" y2="779.048" gradientUnits="userSpaceOnUse">
<stop stop-color="#C12323"/>
<stop offset="1" stop-color="#2333C1"/>
</linearGradient>
<linearGradient id="paint16_linear" x1="895.523" y1="37.3994" x2="895.523" y2="777.333" gradientUnits="userSpaceOnUse">
<stop stop-color="#C12323"/>
<stop offset="1" stop-color="#2333C1"/>
</linearGradient>
<linearGradient id="paint17_linear" x1="895.523" y1="35.6826" x2="895.523" y2="775.616" gradientUnits="userSpaceOnUse">
<stop stop-color="#C12323"/>
<stop offset="1" stop-color="#2333C1"/>
</linearGradient>
<linearGradient id="paint18_linear" x1="895.523" y1="33.9678" x2="895.523" y2="773.901" gradientUnits="userSpaceOnUse">
<stop stop-color="#C12323"/>
<stop offset="1" stop-color="#2333C1"/>
</linearGradient>
<linearGradient id="paint19_linear" x1="895.523" y1="32.2529" x2="895.523" y2="772.186" gradientUnits="userSpaceOnUse">
<stop stop-color="#C12323"/>
<stop offset="1" stop-color="#2333C1"/>
</linearGradient>
<linearGradient id="paint20_linear" x1="895.523" y1="30.5371" x2="895.523" y2="770.471" gradientUnits="userSpaceOnUse">
<stop stop-color="#C12323"/>
<stop offset="1" stop-color="#2333C1"/>
</linearGradient>
</defs>
</svg>
