<?xml version="1.0" encoding="utf-8"?>
<!-- Generator: Adobe Illustrator 24.1.0, SVG Export Plug-In . SVG Version: 6.00 Build 0)  -->
<svg version="1.1" id="Layer_1" xmlns="http://www.w3.org/2000/svg" xmlns:xlink="http://www.w3.org/1999/xlink" x="0px" y="0px"
	 viewBox="0 0 202.18 202.12" style="enable-background:new 0 0 202.18 202.12;" xml:space="preserve">
<style type="text/css">
	.st0{fill:#DDAB0B;}
	.st1{fill:#F9D53D;}
	.st2{fill:#F2E6B1;}
</style>
<path class="st0" d="M156.73,101.06c0,30.73-24.91,55.64-55.64,55.64c-2.01,0-3.99-0.11-5.94-0.32c-27.94-2.96-49.7-26.6-49.7-55.32
	c0-30.73,24.91-55.64,55.64-55.64c7.68,0,14.99,1.56,21.65,4.36C142.71,58.23,156.73,78.01,156.73,101.06z"/>
<path class="st0" d="M101.09,31.73L101.09,31.73c-3.28,0-5.94-2.66-5.94-5.94V5.94c0-3.28,2.66-5.94,5.94-5.94h0
	c3.28,0,5.94,2.66,5.94,5.94v19.86C107.03,29.07,104.37,31.73,101.09,31.73z"/>
<path class="st0" d="M150.11,52.04L150.11,52.04c-2.32-2.32-2.32-6.08,0-8.4l14.04-14.04c2.32-2.32,6.08-2.32,8.4,0v0
	c2.32,2.32,2.32,6.08,0,8.4l-14.04,14.04C156.19,54.36,152.43,54.36,150.11,52.04z"/>
<path class="st0" d="M101.09,202.12L101.09,202.12c-3.28,0-5.94-2.66-5.94-5.94v-19.86c0-3.28,2.66-5.94,5.94-5.94h0
	c3.28,0,5.94,2.66,5.94,5.94v19.86C107.03,199.46,104.37,202.12,101.09,202.12z"/>
<path class="st0" d="M29.63,172.52L29.63,172.52c-2.32-2.32-2.32-6.08,0-8.4l14.04-14.04c2.32-2.32,6.08-2.32,8.4,0l0,0
	c2.32,2.32,2.32,6.08,0,8.4l-14.04,14.04C35.71,174.84,31.95,174.84,29.63,172.52z"/>
<path class="st0" d="M31.73,101.06L31.73,101.06c0,3.28-2.66,5.94-5.94,5.94H5.94C2.66,107,0,104.34,0,101.06v0
	c0-3.28,2.66-5.94,5.94-5.94h19.86C29.07,95.12,31.73,97.78,31.73,101.06z"/>
<path class="st0" d="M52.05,52.01L52.05,52.01c-2.32,2.32-6.08,2.32-8.4,0L29.61,37.97c-2.32-2.32-2.32-6.08,0-8.4l0,0
	c2.32-2.32,6.08-2.32,8.4,0l14.04,14.04C54.37,45.93,54.37,49.69,52.05,52.01z"/>
<path class="st0" d="M170.45,101.06L170.45,101.06c0-3.28,2.66-5.94,5.94-5.94h19.86c3.28,0,5.94,2.66,5.94,5.94v0
	c0,3.28-2.66,5.94-5.94,5.94h-19.86C173.11,107,170.45,104.34,170.45,101.06z"/>
<path class="st0" d="M150.13,150.1L150.13,150.1c2.32-2.32,6.08-2.32,8.4,0l14.04,14.04c2.32,2.32,2.32,6.08,0,8.4v0
	c-2.32,2.32-6.08,2.32-8.4,0l-14.04-14.04C147.82,156.18,147.82,152.42,150.13,150.1z"/>
<path class="st1" d="M66.26,61.8c9.59-7.7,27.36-14.43,36.89-3.15c6.46,7.65,8.7,20.97,6.73,30.56
	c-2.51,12.22-10.66,25.84-21.16,32.8c-7.76,5.14-20.16,8.23-28.2,2.01c-8.18-6.33-9.93-20.65-9.84-30.23
	C50.79,81.84,56.91,69.31,66.26,61.8z"/>
<path class="st2" d="M56,91.61c-0.48-0.61-0.57-1.6-0.57-2.28c-0.01-5.37,1.99-11.16,4.57-15.82c1.55-2.81,3.47-5.41,5.7-7.71
	c2.14-2.21,4.8-4.79,7.81-5.69c2.19-0.65,2.6,1.73,1.09,2.9c-1.6,1.24-3.42,2.13-4.98,3.48c-1.57,1.35-3,2.87-4.23,4.54
	c-2.56,3.44-4.42,7.38-5.63,11.49c-0.8,2.7-1.18,5.36-1.53,8.14c-0.11,0.84-0.62,1.73-1.58,1.41C56.37,91.98,56.16,91.82,56,91.61z"
	/>
</svg>
