<svg width="1440" height="1105" viewBox="0 0 1440 1105" fill="none" xmlns="http://www.w3.org/2000/svg">
<path fill-rule="evenodd" clip-rule="evenodd" d="M-614 -643L-476.5 -493.833C-339 -344.667 -64 -46.3333 211 -27.6875C486 -9.04168 761 -270.083 1036 -419.25C1311 -568.417 1586 -605.708 1861 -549.771C2136 -493.833 2411 -344.667 2548.5 -270.083L2686 -195.5V252H2548.5C2411 252 2136 252 1861 252C1586 252 1311 252 1036 252C761 252 486 252 211 252C-64 252 -339 252 -476.5 252H-614V-643Z" fill="#1CBCD2"/>
<path fill-rule="evenodd" clip-rule="evenodd" d="M2563 -235L2471.33 -165.221C2379.67 -95.4422 2196.33 44.1157 2013 44.1157C1829.67 44.1157 1646.33 -95.4422 1463 -95.4422C1279.67 -95.4422 1096.33 44.1157 913 113.895C729.667 183.674 546.333 183.674 363 113.895C179.667 44.1157 -3.66676 -95.4422 -187 -136.147C-370.333 -178.789 -553.667 -122.578 -645.333 -95.4422L-737 -66.3676V519H-645.333C-553.667 519 -370.333 519 -187 519C-3.66676 519 179.667 519 363 519C546.333 519 729.667 519 913 519C1096.33 519 1279.67 519 1463 519C1646.33 519 1829.67 519 2013 519C2196.33 519 2379.67 519 2471.33 519H2563V-235Z" fill="#2C4C8B"/>
<path fill-rule="evenodd" clip-rule="evenodd" d="M-669 -82L-518.125 -21.0476C-367.25 39.9048 -65.5 161.81 236.25 238C538 314.19 839.75 344.667 1141.5 253.238C1443.25 161.81 1745 -51.5238 2046.75 -21.0476C2348.5 9.42857 2650.25 283.714 2801.12 420.857L2952 558V558H2801.12C2650.25 558 2348.5 558 2046.75 558C1745 558 1443.25 558 1141.5 558C839.75 558 538 558 236.25 558C-65.5 558 -367.25 558 -518.125 558H-669V-82Z" fill="#1F287C"/>
<path fill-rule="evenodd" clip-rule="evenodd" d="M-895 238L-790.306 289.918C-685.611 341.835 -476.222 445.671 -266.833 445.671C-57.4444 445.671 151.944 341.835 361.333 341.835C570.722 341.835 780.111 445.671 989.5 497.589C1198.89 549.506 1408.28 549.506 1617.67 497.589C1827.06 445.671 2036.44 341.835 2245.83 311.55C2455.22 279.823 2664.61 321.645 2769.31 341.835L2874 363.468V799H2769.31C2664.61 799 2455.22 799 2245.83 799C2036.44 799 1827.06 799 1617.67 799C1408.28 799 1198.89 799 989.5 799C780.111 799 570.722 799 361.333 799C151.944 799 -57.4444 799 -266.833 799C-476.222 799 -685.611 799 -790.306 799H-895V238Z" fill="#A2177B"/>
<path fill-rule="evenodd" clip-rule="evenodd" d="M-1122 348L-1030.33 399.918C-938.667 451.835 -755.333 555.671 -572 555.671C-388.667 555.671 -205.333 451.835 -22 451.835C161.333 451.835 344.667 555.671 528 607.589C711.333 659.506 894.667 659.506 1078 607.589C1261.33 555.671 1444.67 451.835 1628 421.55C1811.33 389.823 1994.67 431.645 2086.33 451.835L2178 473.468V909H2086.33C1994.67 909 1811.33 909 1628 909C1444.67 909 1261.33 909 1078 909C894.667 909 711.333 909 528 909C344.667 909 161.333 909 -22 909C-205.333 909 -388.667 909 -572 909C-755.333 909 -938.667 909 -1030.33 909H-1122V348Z" fill="#C90F1B"/>
<path fill-rule="evenodd" clip-rule="evenodd" d="M-1393 558L-1289.67 609.918C-1186.33 661.835 -979.667 765.671 -773 765.671C-566.333 765.671 -359.667 661.835 -153 661.835C53.6667 661.835 260.333 765.671 467 817.589C673.667 869.506 880.333 869.506 1087 817.589C1293.67 765.671 1500.33 661.835 1707 631.55C1913.67 599.823 2120.33 641.645 2223.67 661.835L2327 683.468V1119H2223.67C2120.33 1119 1913.67 1119 1707 1119C1500.33 1119 1293.67 1119 1087 1119C880.333 1119 673.667 1119 467 1119C260.333 1119 53.6667 1119 -153 1119C-359.667 1119 -566.333 1119 -773 1119C-979.667 1119 -1186.33 1119 -1289.67 1119H-1393V558Z" fill="#EBC027"/>
<path fill-rule="evenodd" clip-rule="evenodd" d="M-1393 736L-1270.25 787.918C-1147.5 839.835 -902 943.671 -656.5 943.671C-411 943.671 -165.5 839.835 80 839.835C325.5 839.835 571 943.671 816.5 995.589C1062 1047.51 1307.5 1047.51 1553 995.589C1798.5 943.671 2044 839.835 2289.5 809.55C2535 777.823 2780.5 819.645 2903.25 839.835L3026 861.468V1297H2903.25C2780.5 1297 2535 1297 2289.5 1297C2044 1297 1798.5 1297 1553 1297C1307.5 1297 1062 1297 816.5 1297C571 1297 325.5 1297 80 1297C-165.5 1297 -411 1297 -656.5 1297C-902 1297 -1147.5 1297 -1270.25 1297H-1393V736Z" fill="#86B1E3"/>
</svg>
